<svg width="18" height="18" viewBox="0 0 18 18" fill="none" xmlns="http://www.w3.org/2000/svg">
<path d="M3.195 14.0625C4.14 13.4625 5.07375 13.0087 5.99625 12.7012C6.91875 12.3937 7.92 12.24 9 12.24C10.08 12.24 11.085 12.3937 12.015 12.7012C12.945 13.0087 13.8825 13.4625 14.8275 14.0625C15.4875 13.2525 15.9563 12.435 16.2337 11.61C16.5112 10.785 16.65 9.915 16.65 9C16.65 6.825 15.9187 5.00625 14.4562 3.54375C12.9937 2.08125 11.175 1.35 9 1.35C6.825 1.35 5.00625 2.08125 3.54375 3.54375C2.08125 5.00625 1.35 6.825 1.35 9C1.35 9.915 1.4925 10.785 1.7775 11.61C2.0625 12.435 2.535 13.2525 3.195 14.0625ZM9 9.675C8.13 9.675 7.39875 9.37875 6.80625 8.78625C6.21375 8.19375 5.9175 7.4625 5.9175 6.5925C5.9175 5.7225 6.21375 4.99125 6.80625 4.39875C7.39875 3.80625 8.13 3.51 9 3.51C9.87 3.51 10.6012 3.80625 11.1937 4.39875C11.7863 4.99125 12.0825 5.7225 12.0825 6.5925C12.0825 7.4625 11.7863 8.19375 11.1937 8.78625C10.6012 9.37875 9.87 9.675 9 9.675ZM9 18C7.74 18 6.5625 17.7638 5.4675 17.2912C4.3725 16.8187 3.42 16.1737 2.61 15.3562C1.8 14.5387 1.1625 13.5825 0.6975 12.4875C0.2325 11.3925 0 10.2225 0 8.9775C0 7.7475 0.23625 6.585 0.70875 5.49C1.18125 4.395 1.82625 3.4425 2.64375 2.6325C3.46125 1.8225 4.4175 1.18125 5.5125 0.70875C6.6075 0.23625 7.7775 0 9.0225 0C10.2525 0 11.415 0.23625 12.51 0.70875C13.605 1.18125 14.5575 1.8225 15.3675 2.6325C16.1775 3.4425 16.8187 4.395 17.2912 5.49C17.7638 6.585 18 7.755 18 9C18 10.23 17.7638 11.3925 17.2912 12.4875C16.8187 13.5825 16.1775 14.5387 15.3675 15.3562C14.5575 16.1737 13.605 16.8187 12.51 17.2912C11.415 17.7638 10.245 18 9 18Z" fill="#c3cfe2"/>
</svg>
