<svg width="18" height="18" viewBox="0 0 18 18" fill="none" xmlns="http://www.w3.org/2000/svg">
<path d="M1.83467 17.7907C1.31577 17.7907 0.880269 17.6146 0.528161 17.2625C0.176054 16.9104 0 16.4749 0 15.956C0 15.4371 0.176054 15.0016 0.528161 14.6495C0.880269 14.2974 1.31577 14.1214 1.83467 14.1214C2.35356 14.1214 2.78906 14.2974 3.14117 14.6495C3.49328 15.0016 3.66933 15.4371 3.66933 15.956C3.66933 16.4749 3.49328 16.9104 3.14117 17.2625C2.78906 17.6146 2.35356 17.7907 1.83467 17.7907V17.7907ZM1.83467 10.73C1.31577 10.73 0.880269 10.554 0.528161 10.2019C0.176054 9.84975 0 9.41424 0 8.89535C0 8.37645 0.176054 7.94095 0.528161 7.58884C0.880269 7.23674 1.31577 7.06068 1.83467 7.06068C2.35356 7.06068 2.78906 7.23674 3.14117 7.58884C3.49328 7.94095 3.66933 8.37645 3.66933 8.89535C3.66933 9.41424 3.49328 9.84975 3.14117 10.2019C2.78906 10.554 2.35356 10.73 1.83467 10.73V10.73ZM1.83467 3.66933C1.31577 3.66933 0.880269 3.49328 0.528161 3.14117C0.176054 2.78906 0 2.35356 0 1.83467C0 1.31577 0.176054 0.880269 0.528161 0.528161C0.880269 0.176054 1.31577 0 1.83467 0C2.35356 0 2.78906 0.176054 3.14117 0.528161C3.49328 0.880269 3.66933 1.31577 3.66933 1.83467C3.66933 2.35356 3.49328 2.78906 3.14117 3.14117C2.78906 3.49328 2.35356 3.66933 1.83467 3.66933V3.66933ZM8.89535 10.73C8.37645 10.73 7.94095 10.554 7.58884 10.2019C7.23674 9.84975 7.06068 9.41424 7.06068 8.89535C7.06068 8.37645 7.23674 7.94095 7.58884 7.58884C7.94095 7.23674 8.37645 7.06068 8.89535 7.06068C9.41424 7.06068 9.84975 7.23674 10.2019 7.58884C10.554 7.94095 10.73 8.37645 10.73 8.89535L8.89535 10.73ZM8.89535 3.66933C8.37645 3.66933 7.94095 3.49328 7.58884 3.14117C7.23674 2.78906 7.06068 2.35356 7.06068 1.83467C7.06068 1.31577 7.23674 0.880269 7.58884 0.528161C7.94095 0.176054 8.37645 0 8.89535 0C9.41424 0 9.84975 0.176054 10.2019 0.528161C10.554 0.880269 10.73 1.31577 10.73 1.83467C10.73 2.35356 10.554 2.78906 10.2019 3.14117C9.84975 3.49328 9.41424 3.66933 8.89535 3.66933V3.66933ZM7.78343 17.7907V15.9838L14.5383 9.22892L16.3452 11.0358L9.5903 17.7907H7.78343ZM15.956 3.66933C15.4371 3.66933 15.0016 3.49328 14.6495 3.14117C14.2974 2.78906 14.1214 2.35356 14.1214 1.83467C14.1214 1.31577 14.2974 0.880269 14.6495 0.528161C15.0016 0.176054 15.4371 0 15.956 0C16.4749 0 16.9104 0.176054 17.2625 0.528161C17.6146 0.880269 17.7907 1.31577 17.7907 1.83467C17.7907 2.35356 17.6146 2.78906 17.2625 3.14117C16.9104 3.49328 16.4749 3.66933 15.956 3.66933V3.66933ZM17.068 10.313L15.2611 8.50618L15.956 7.81123C16.1043 7.66297 16.2896 7.58421 16.512 7.57495C16.7344 7.56568 16.9197 7.63517 17.068 7.78343L17.7907 8.50618C17.939 8.65443 18.0084 8.83975 17.9992 9.06214C17.9899 9.28452 17.9112 9.46984 17.7629 9.6181L17.068 10.313Z" fill="#A4BBFB"/>
</svg>
